<svg width="50" height="160" viewBox="0 0 50 160" xmlns="http://www.w3.org/2000/svg" fill="none" stroke="#7F0F25" stroke-width="1.3" stroke-linecap="round">
  <path d="M25,158 C21,120 29,90 22,60 C17,38 27,18 24,3"/>

  <g stroke-width="1.1">
    <ellipse cx="14" cy="138" rx="11" ry="4.2" transform="rotate(-24 14 138)"/>
    <path d="M4,140 C8,138 12,137 24,136"/>

    <ellipse cx="37" cy="115" rx="11" ry="4.2" transform="rotate(24 37 115)"/>
    <path d="M47,117 C43,115 39,114 27,113"/>

    <ellipse cx="12" cy="88" rx="10" ry="3.8" transform="rotate(-20 12 88)"/>
    <path d="M3,89 C7,88 10,87 21,86"/>

    <ellipse cx="34" cy="64" rx="10" ry="3.8" transform="rotate(22 34 64)"/>
    <path d="M43,66 C39,64 35,63 24,62"/>

    <ellipse cx="15" cy="40" rx="9" ry="3.4" transform="rotate(-18 15 40)"/>
    <path d="M7,41 C10,40 13,39 23,38"/>

    <ellipse cx="31" cy="20" rx="8" ry="3" transform="rotate(20 31 20)"/>
    <path d="M39,21 C36,20 33,19 24,19"/>
  </g>

  <circle cx="24" cy="3" r="2" fill="#B2344D" stroke="none"/>
</svg>
